<svg width="98" height="24" viewBox="0 0 98 24" fill="none" xmlns="http://www.w3.org/2000/svg"><g clip-path="url(#clip0_1_8)"><path d="M9.7029 0.488281C8.89531 0.488281 8.21041 1.05036 8.01357 1.93333L6.04515 13.9167C5.92244 14.5602 5.37895 15 4.71587 15H0.807129V16H5.40578C6.59379 16 7.50424 15.1111 7.74233 13.958L8.13606 11.9167L9.90448 1.93333C10.1013 1.05036 10.7862 0.488281 11.5938 0.488281H18.2563L17.5 4.33333H12.4468C11.6392 4.33333 10.9543 4.89541 10.7575 5.77838L8.78907 15.7617C8.59223 16.6447 7.90734 17.2068 7.10091 17.2068H2.41944V18.2068H6.32819C7.5162 18.2068 8.42665 17.3179 8.66474 16.1646L9.05847 14.123L12.5855 1.93333C12.7823 1.05036 13.4672 0.488281 14.2748 0.488281H21.25V-0.511719H14.0779C12.8899 -0.511719 11.9795 0.377197 11.7414 1.53053L9.7029 0.488281Z" fill="#253B80"></path><path d="M37.8931 0.488281C37.0855 0.488281 36.4006 1.05036 36.2038 1.93333L32.6767 16.1646C32.4386 17.3179 31.5282 18.2068 30.3402 18.2068H24.3306V17.2068H30.3402C31.1466 17.2068 31.8315 16.6447 32.0283 15.7617L32.422 13.7204L34.1905 4.33333H28.8794L27.5 10.5H26.5L28.1219 1.93333C28.3187 1.05036 29.0036 0.488281 29.8112 0.488281H37.8931Z" fill="#253B80"></path><path d="M56.4023 0.488281C55.5947 0.488281 54.9098 1.05036 54.713 1.93333L49.8145 22.123L48.5 15.7617C48.3032 14.8788 47.6183 14.3167 46.8119 14.3167H40.5V15.3167H46.8119C47.2056 15.3167 47.5218 15.5636 47.6445 15.9248L50.2082 22.8333H51.25L57.0918 1.93333C57.2886 1.05036 57.9735 0.488281 58.7811 0.488281H65.7563L65 4.33333H59.6892C58.8816 4.33333 58.1967 4.89541 58.0001 5.77838L56.4023 0.488281Z" fill="#253B80"></path><path d="M50.125 0.488281L43.75 23H44.75L51.125 0.488281H50.125Z" fill="#179BD7"></path><path d="M78.6758 1.93333C78.479 1.05036 77.7941 0.488281 76.9865 0.488281H69.6992L63.3242 23H64.3242L70.6992 0.488281H71.3623L67.5 17.2068H68.5L72.459 0.488281H73.0703L69.3364 16.5H70.3364L73.9473 0.488281H74.5586L68.1836 23H75.1836L79.3643 1.93333C79.5611 1.05036 80.246 0.488281 81.0536 0.488281H88V-0.511719H81.0536C79.8656 -0.511719 78.9551 0.377197 78.717 1.53053L78.6758 1.93333Z" fill="#253B80"></path><path d="M97.125 0.488281C96.3174 0.488281 95.6325 1.05036 95.4357 1.93333L91.9086 16.1646C91.6705 17.3179 90.7601 18.2068 89.5721 18.2068H83.5625V17.2068H89.5721C90.3785 17.2068 91.0634 16.6447 91.2602 15.7617L91.6539 13.7204L93.4223 4.33333H88.1113L86.7324 10.5H85.7324L87.3543 1.93333C87.5511 1.05036 88.236 0.488281 89.0436 0.488281H97.125Z" fill="#253B80"></path></g><defs><clipPath id="clip0_1_8"><rect width="98" height="24" fill="white"></rect></clipPath></defs></svg>