<svg width="110" height="24" viewBox="0 0 110 24" fill="none" xmlns="http://www.w3.org/2000/svg"><g clip-path="url(#clip0_1_14)"><path d="M102.977 10.5371V0.897095H109.967V3.80709H106.017V7.63709H109.687V10.5371H102.977Z" fill="#0D2E67"></path><path d="M92.3524 10.5371H89.3724L87.9924 13.2571H91.1324L90.2224 14.8871H86.8224L85.1224 17.9671H94.1324V14.8871H90.8924L92.2024 12.5871H89.0924L90.3124 10.5371H86.1324V7.63709H92.8324V4.91709H86.1324V0.897095H95.4224V3.80709H89.3724V6.52709H92.3524V10.5371Z" fill="#0D2E67"></path><path d="M78.6947 10.5371V0.897095H85.6847V3.80709H81.7347V7.63709H85.4047V10.5371H78.6947Z" fill="#0D2E67"></path><path d="M68.5267 17.9671L74.3167 0.897095H67.6067L64.4667 9.85709L61.2767 0.897095H54.5667L60.3567 17.9671H68.5267Z" fill="#0D2E67"></path><path d="M43.0483 10.5371V0.897095H50.0383V3.80709H46.0883V7.63709H49.7583V10.5371H43.0483Z" fill="#0D2E67"></path><path d="M37.7801 17.9671V0.897095H30.7901V17.9671H37.7801ZM34.7401 3.80709H33.8301V15.0571H34.7401V3.80709Z" fill="#0D2E67"></path><path d="M19.7423 10.5371V0.897095H26.7323V3.80709H22.7823V7.63709H26.4523V10.5371H19.7423Z" fill="#0D2E67"></path><path d="M0 17.9671L5.79 0.897095H12.5L18.29 17.9671H10.12L8.88 14.1571H3.41L2.17 17.9671H0ZM6.15 11.2471H6.15L7.84 6.22709L9.53 11.2471H6.15Z" fill="#0D2E67"></path><path d="M109.967 23.1029V17.9729L106.017 19.3329V20.2429L109.967 21.7229V23.1029Z" fill="#528FF0"></path><path d="M86.8224 23.1029L85.1224 20.1829L94.1324 17.9729V23.1029H86.8224Z" fill="#528FF0"></path><path d="M78.6947 23.1029V17.9729L85.6847 20.1829V23.1029H78.6947Z" fill="#528FF0"></path><path d="M68.5267 17.9729L60.3567 17.9729L54.5667 17.9729L61.2767 23.1029L64.4667 23.1029L67.6067 23.1029L74.3167 17.9729L68.5267 17.9729Z" fill="#528FF0"></path><path d="M50.0383 17.9729V23.1029H43.0483V17.9729H50.0383Z" fill="#528FF0"></path><path d="M37.7801 17.9729V23.1029H30.7901V17.9729H37.7801Z" fill="#528FF0"></path><path d="M19.7423 23.1029V17.9729L26.7323 20.1829V23.1029H19.7423Z" fill="#528FF0"></path><path d="M10.12 17.9729H2.17L0 17.9729L6.15 23.1029L12.5 17.9729L18.29 17.9729H10.12Z" fill="#528FF0"></path></g><defs><clipPath id="clip0_1_14"><rect width="110" height="24" fill="white"></rect></clipPath></defs></svg>