<svg width="103" height="42" viewBox="0 0 103 42" fill="none" xmlns="http://www.w3.org/2000/svg"><g clip-path="url(#clip0_1_2)"><path d="M83.4756 20.9167C83.4756 19.8333 83.3923 18.75 83.1423 17.75H69.2256V24.0833H77.309C76.9756 26.25 75.3923 27.8333 73.2256 27.8333C70.059 27.8333 67.4756 25.25 67.4756 22.0833C67.4756 18.9167 70.059 16.3333 73.2256 16.3333C74.559 16.3333 75.7256 16.75 76.6423 17.5833L82.1423 12.1667C79.809 10.0833 76.809 8.75 73.2256 8.75C66.559 8.75 61.4756 13.6667 61.4756 20.4167C61.4756 27.0833 66.4756 32.0833 73.2256 32.0833C80.2256 32.0833 83.809 27.25 83.809 21.1667C83.809 21.0833 83.7256 21 83.4756 20.9167Z" fill="#4375FF"></path><path d="M51.979 23.0833C49.8123 23.0833 47.979 21.25 47.979 18.9167C47.979 16.5833 49.8123 14.75 51.979 14.75C54.1457 14.75 55.979 16.5833 55.979 18.9167C55.979 21.25 54.1457 23.0833 51.979 23.0833ZM51.979 31.5C45.3957 31.5 40.229 26.5 40.229 19.1667C40.229 11.8333 45.3957 6.83333 51.979 6.83333C58.5623 6.83333 63.729 11.8333 63.729 19.1667C63.729 26.5 58.5623 31.5 51.979 31.5Z" fill="#4375FF"></path><path d="M29.8127 23.0833C27.646 23.0833 25.8127 21.25 25.8127 18.9167C25.8127 16.5833 27.646 14.75 29.8127 14.75C31.9793 14.75 33.8127 16.5833 33.8127 18.9167C33.8127 21.25 31.9793 23.0833 29.8127 23.0833ZM29.8127 31.5C23.2293 31.5 18.0627 26.5 18.0627 19.1667C18.0627 11.8333 23.2293 6.83333 29.8127 6.83333C36.396 6.83333 41.5627 11.8333 41.5627 19.1667C41.5627 26.5 36.396 31.5 29.8127 31.5Z" fill="#4375FF"></path><path d="M91.3087 13.9167V31H85.8087V13.9167H91.3087Z" fill="#4375FF"></path><path d="M102.142 18.5C102.142 16.4167 100.725 15.0833 98.4753 15.0833C96.392 15.0833 94.642 16.5 94.642 18.5C94.642 20.4167 96.2253 21.8333 98.4753 21.8333C100.809 21.8333 102.142 20.4167 102.142 18.5ZM102.309 10.5H98.392L94.9753 10.5V31H100.475V19.1667C100.475 16.4167 101.892 14.5833 104.559 14.5833C105.392 14.5833 106.142 14.9167 106.475 15.5L106.809 10.5H102.309Z" fill="#4375FF"></path><path d="M22.0625 0.666626H0V6.41663H13.625V14.1666H0V19.9166H13.625V27.6666H0V33.4166H22.0625V0.666626Z" fill="#635BFF"></path></g><defs><clipPath id="clip0_1_2"><rect width="103" height="42" fill="white"></rect></clipPath></defs></svg>